<svg xmlns="http://www.w3.org/2000/svg" version="1.1" xmlns:xlink="http://www.w3.org/1999/xlink" xmlns:svgjs="http://svgjs.dev/svgjs" width="1200" height="660" preserveAspectRatio="none" viewBox="0 0 1200 660">
    <g mask="url(&quot;#SvgjsMask1765&quot;)" fill="none">
        <rect width="1200" height="660" x="0" y="0" fill="rgba(255, 255, 255, 1)"></rect>
        <rect width="79.2" height="79.2" clip-path="url(&quot;#SvgjsClipPath1766&quot;)" x="117.54" y="559.64" fill="url(&quot;#SvgjsPattern1767&quot;)" transform="rotate(314.64, 157.14, 599.24)"></rect>
        <rect width="216" height="216" clip-path="url(&quot;#SvgjsClipPath1768&quot;)" x="-26.7" y="-80" fill="url(&quot;#SvgjsPattern1769&quot;)" transform="rotate(263.58, 81.3, 28)"></rect>
        <path d="M269.46 41.76 L286.63 186.82999999999998L213.01233591485885 179.32766408514107z" fill="rgba(155, 194, 215, 1)"></path>
        <rect width="276" height="276" clip-path="url(&quot;#SvgjsClipPath1770&quot;)" x="920.12" y="36.9" fill="url(&quot;#SvgjsPattern1771&quot;)" transform="rotate(205.37, 1058.12, 174.9)"></rect>
        <path d="M849.14 353.72L853.99 341.87 866.62 344 871.47 332.15 884.09 334.28 888.94 322.42 901.57 324.55M853.03 360.71L857.88 348.86 870.51 350.99 875.36 339.14 887.98 341.27 892.83 329.41 905.46 331.54M856.92 367.71L861.77 355.85 874.4 357.98 879.25 346.13 891.87 348.26 896.72 336.41 909.35 338.53" stroke="rgba(155, 194, 215, 1)" stroke-width="1.52" stroke-dasharray="3, 3"></path>
        <rect width="395.28000000000003" height="395.28000000000003" clip-path="url(&quot;#SvgjsClipPath1772&quot;)" x="20.94" y="290.77" fill="url(&quot;#SvgjsPattern1773&quot;)" transform="rotate(137.03, 218.58, 488.41)"></rect>
        <path d="M863.74 25.21L856.75 35.94 844.75 31.48 837.76 42.21 825.76 37.75 818.77 48.48 806.77 44.02" stroke="rgba(241, 245, 249, 1)" stroke-width="2.86" stroke-dasharray="3, 2"></path>
        <rect width="124.6" height="124.6" clip-path="url(&quot;#SvgjsClipPath1774&quot;)" x="212.28" y="445.72" fill="url(&quot;#SvgjsPattern1775&quot;)" transform="rotate(303.82, 274.58, 508.02)"></rect>
        <path d="M666.95 324.59a5.6 5.6 0 1 0-2.57 10.9 5.6 5.6 0 1 0 2.57-10.9zM663.28 340.16a5.6 5.6 0 1 0-2.58 10.9 5.6 5.6 0 1 0 2.58-10.9zM659.6 355.73a5.6 5.6 0 1 0-2.57 10.91 5.6 5.6 0 1 0 2.57-10.91zM655.93 371.31a5.6 5.6 0 1 0-2.58 10.9 5.6 5.6 0 1 0 2.58-10.9zM658.73 289.77a5.6 5.6 0 1 0-2.57 10.9 5.6 5.6 0 1 0 2.57-10.9zM655.06 305.34a5.6 5.6 0 1 0-2.58 10.9 5.6 5.6 0 1 0 2.58-10.9zM651.38 320.91a5.6 5.6 0 1 0-2.57 10.91 5.6 5.6 0 1 0 2.57-10.91zM647.71 336.49a5.6 5.6 0 1 0-2.58 10.9 5.6 5.6 0 1 0 2.58-10.9z" stroke="rgba(241, 245, 249, 1)" stroke-width="1.38"></path>
    </g>
    <defs>
        <mask id="SvgjsMask1765">
            <rect width="1200" height="660" fill="#ffffff"></rect>
        </mask>
        <pattern x="0" y="0" width="7.92" height="7.92" patternUnits="userSpaceOnUse" id="SvgjsPattern1767">
            <path d="M0 7.92L3.96 0L7.92 7.92" stroke="rgba(155, 194, 215, 1)" fill="none"></path>
        </pattern>
        <clipPath id="SvgjsClipPath1766">
            <circle r="19.8" cx="157.14" cy="599.24"></circle>
        </clipPath>
        <pattern x="0" y="0" width="6" height="6" patternUnits="userSpaceOnUse" id="SvgjsPattern1769">
            <path d="M3 1L3 5M1 3L5 3" stroke="rgba(155, 194, 215, 1)" fill="none" stroke-width="1"></path>
        </pattern>
        <clipPath id="SvgjsClipPath1768">
            <circle r="54" cx="81.3" cy="28"></circle>
        </clipPath>
        <pattern x="0" y="0" width="6" height="6" patternUnits="userSpaceOnUse" id="SvgjsPattern1771">
            <path d="M0 6L3 0L6 6" stroke="rgba(241, 245, 249, 1)" fill="none"></path>
        </pattern>
        <clipPath id="SvgjsClipPath1770">
            <circle r="69" cx="1058.12" cy="174.9"></circle>
        </clipPath>
        <pattern x="0" y="0" width="10.98" height="10.98" patternUnits="userSpaceOnUse" id="SvgjsPattern1773">
            <path d="M0 10.98L5.49 0L10.98 10.98" stroke="rgba(155, 194, 215, 1)" fill="none"></path>
        </pattern>
        <clipPath id="SvgjsClipPath1772">
            <circle r="98.82000000000001" cx="218.58" cy="488.41"></circle>
        </clipPath>
        <pattern x="0" y="0" width="124.6" height="12.46" patternUnits="userSpaceOnUse" id="SvgjsPattern1775">
            <rect width="124.6" height="6.23" x="0" y="0" fill="rgba(241, 245, 249, 1)"></rect>
            <rect width="124.6" height="6.23" x="0" y="6.23" fill="rgba(0, 0, 0, 0)"></rect>
        </pattern>
        <clipPath id="SvgjsClipPath1774">
            <circle r="31.15" cx="274.58" cy="508.02"></circle>
        </clipPath>
    </defs>
</svg>
